<svg width="75" height="68" viewBox="0 0 75 68" fill="none" xmlns="http://www.w3.org/2000/svg">
<path d="M37.5 54.375C42.1875 54.375 46.1725 52.735 49.455 49.455C52.7375 46.175 54.3775 42.19 54.375 37.5C54.3725 32.81 52.7325 28.8262 49.455 25.5487C46.1775 22.2712 42.1925 20.63 37.5 20.625C32.8075 20.62 28.8238 22.2612 25.5488 25.5487C22.2738 28.8362 20.6325 32.82 20.625 37.5C20.6175 42.18 22.2588 46.165 25.5488 49.455C28.8388 52.745 32.8225 54.385 37.5 54.375ZM37.5 46.875C34.875 46.875 32.6563 45.9688 30.8438 44.1562C29.0313 42.3438 28.125 40.125 28.125 37.5C28.125 34.875 29.0313 32.6562 30.8438 30.8438C32.6563 29.0313 34.875 28.125 37.5 28.125C40.125 28.125 42.3438 29.0313 44.1563 30.8438C45.9688 32.6562 46.875 34.875 46.875 37.5C46.875 40.125 45.9688 42.3438 44.1563 44.1562C42.3438 45.9688 40.125 46.875 37.5 46.875ZM7.5 67.5C5.4375 67.5 3.6725 66.7663 2.205 65.2988C0.7375 63.8312 0.0025 62.065 0 60V15C0 12.9375 0.735 11.1725 2.205 9.705C3.675 8.2375 5.44 7.5025 7.5 7.5H19.3125L26.25 0H48.75L55.6875 7.5H67.5C69.5625 7.5 71.3288 8.235 72.7988 9.705C74.2688 11.175 75.0025 12.94 75 15V60C75 62.0625 74.2663 63.8288 72.7988 65.2988C71.3313 66.7688 69.565 67.5025 67.5 67.5H7.5Z" fill="#284243"/>
</svg>
