<svg width="21" height="19" viewBox="0 0 21 19" fill="none" xmlns="http://www.w3.org/2000/svg">
<path d="M20.2165 17.5602L19.4581 14.9052C19.9951 13.8668 20.2683 12.7122 20.2537 11.5433C20.2391 10.3743 19.9371 9.22694 19.3744 8.20229C18.8116 7.17763 18.0053 6.30719 17.0267 5.66773C16.0481 5.02826 14.9272 4.63941 13.7628 4.53547C13.4111 3.63405 12.8795 2.8137 12.2004 2.12444C11.5214 1.43519 10.709 0.891474 9.8129 0.526452C8.9168 0.16143 7.95575 -0.0172484 6.98834 0.0013109C6.02093 0.0198702 5.06743 0.235279 4.18599 0.634402C3.30456 1.03352 2.51365 1.608 1.8615 2.32279C1.20935 3.03758 0.709627 3.87772 0.392796 4.79197C0.0759654 5.70621 -0.0513303 6.67541 0.018671 7.64047C0.0886723 8.60552 0.354504 9.5462 0.799956 10.4052L0.0415181 13.0602C0.00146457 13.1996 -0.00566052 13.3465 0.0207039 13.4892C0.0470684 13.6319 0.106202 13.7666 0.193449 13.8825C0.280696 13.9985 0.393674 14.0926 0.523485 14.1575C0.653297 14.2224 0.796397 14.2562 0.941518 14.2564C1.03035 14.2563 1.11872 14.2437 1.20402 14.2189L3.85902 13.4605C4.68003 13.8847 5.57573 14.1452 6.49621 14.2273C6.85985 15.1573 7.41491 16.0004 8.12537 16.7021C8.83584 17.4037 9.68585 17.9482 10.6203 18.3002C11.5547 18.6522 12.5527 18.8038 13.5495 18.7453C14.5463 18.6868 15.5197 18.4194 16.4065 17.9605L19.0615 18.7189C19.1468 18.7437 19.2352 18.7563 19.324 18.7564C19.4688 18.7557 19.6115 18.7214 19.7408 18.6563C19.8702 18.5911 19.9826 18.4969 20.0695 18.381C20.1563 18.2652 20.2151 18.1307 20.2413 17.9883C20.2674 17.8459 20.2602 17.6993 20.2203 17.5602H20.2165ZM3.89746 12.6852C3.86253 12.685 3.82777 12.6901 3.79433 12.7002L0.994018 13.4998C0.961906 13.509 0.927943 13.5093 0.895637 13.5009C0.863332 13.4925 0.833855 13.4757 0.810252 13.452C0.786648 13.4284 0.769774 13.399 0.761372 13.3667C0.752969 13.3344 0.753344 13.3004 0.762456 13.2683L1.56214 10.468C1.58895 10.3738 1.57785 10.2728 1.53121 10.1867C0.797409 8.84056 0.573331 7.27503 0.900044 5.77707C1.22676 4.27912 2.08237 2.94908 3.31007 2.03072C4.53777 1.11237 6.05531 0.66723 7.58456 0.776882C9.1138 0.886534 10.5523 1.54364 11.6364 2.62775C12.7205 3.71187 13.3776 5.15037 13.4873 6.67962C13.5969 8.20887 13.1518 9.72641 12.2335 10.9541C11.3151 12.1818 9.98506 13.0374 8.4871 13.3641C6.98915 13.6908 5.42362 13.4668 4.07746 12.733C4.02261 12.7015 3.96069 12.6844 3.89746 12.6833V12.6852ZM19.4478 17.9502C19.4238 17.9744 19.3937 17.9917 19.3607 18.0001C19.3276 18.0085 19.2929 18.0078 19.2603 17.998L16.46 17.1983C16.3658 17.1715 16.2648 17.1826 16.1787 17.2292C15.4084 17.6493 14.5596 17.9059 13.6855 17.9828C12.8114 18.0598 11.9309 17.9555 11.099 17.6764C10.2671 17.3974 9.50176 16.9496 8.8509 16.3611C8.20005 15.7726 7.67769 15.0561 7.31652 14.2564C8.39017 14.228 9.44352 13.9573 10.3978 13.4645C11.3521 12.9717 12.1826 12.2695 12.8272 11.4104C13.4719 10.5514 13.914 9.55771 14.1205 8.50372C14.3269 7.44973 14.2925 6.3627 14.0196 5.32391C15.0397 5.46776 16.0098 5.8567 16.8467 6.45741C17.6837 7.05812 18.3625 7.85271 18.8252 8.77315C19.288 9.69359 19.5207 10.7125 19.5036 11.7425C19.4864 12.7726 19.2199 13.7831 18.7268 14.6877C18.6802 14.7738 18.6691 14.8747 18.6959 14.9689L19.4956 17.7692C19.5042 17.8009 19.5043 17.8343 19.4959 17.8661C19.4875 17.8978 19.4709 17.9268 19.4478 17.9502Z" fill="white"/>
</svg>
