<svg width="32" height="32" viewBox="0 0 32 32" fill="none" xmlns="http://www.w3.org/2000/svg">
<path d="M15.129 6L17.103 6.005C17.881 6.099 18.563 6.465 19.125 7.083C19.584 7.587 19.825 8.173 19.839 8.811H25.314C25.4968 8.81206 25.6718 8.88563 25.8004 9.01557C25.929 9.1455 26.0008 9.32117 26 9.504C26.0004 9.59448 25.983 9.68415 25.9487 9.7679C25.9144 9.85164 25.864 9.92782 25.8003 9.99208C25.7366 10.0563 25.6609 10.1074 25.5774 10.1424C25.494 10.1774 25.4045 10.1956 25.314 10.196L23.478 10.195V21.822C23.478 24.365 22.529 26 20.437 26H11.419C9.327 26 8.393 24.374 8.393 21.822V10.195H6.686C6.50361 10.1942 6.32898 10.1211 6.20039 9.99178C6.0718 9.86244 5.99973 9.68739 6 9.505C6 9.122 6.307 8.813 6.686 8.813H12.156C12.17 8.299 12.361 7.778 12.71 7.263C13.23 6.495 14.042 6.074 15.129 6ZM22.106 10.195H9.764V21.822C9.764 23.71 10.284 24.616 11.419 24.616H20.437C21.576 24.616 22.107 23.702 22.107 21.822L22.106 10.195ZM12.716 12.34C13.094 12.34 13.401 12.65 13.401 13.032V21.082C13.4014 21.1725 13.384 21.2622 13.3497 21.3459C13.3154 21.4296 13.265 21.5058 13.2013 21.5701C13.1376 21.6343 13.0619 21.6854 12.9784 21.7204C12.895 21.7554 12.8055 21.7736 12.715 21.774C12.5324 21.7729 12.3578 21.6995 12.2293 21.5697C12.1009 21.44 12.0292 21.2646 12.03 21.082V13.032C12.03 12.65 12.338 12.34 12.716 12.34ZM15.441 12.34C15.821 12.34 16.127 12.65 16.127 13.032V21.082C16.1274 21.1725 16.11 21.2622 16.0757 21.3459C16.0414 21.4296 15.991 21.5058 15.9273 21.5701C15.8636 21.6343 15.7879 21.6854 15.7044 21.7204C15.621 21.7554 15.5315 21.7736 15.441 21.774C15.2584 21.7729 15.0838 21.6995 14.9553 21.5697C14.8269 21.44 14.7552 21.2646 14.756 21.082V13.032C14.756 12.65 15.063 12.34 15.441 12.34ZM18.169 12.34C18.547 12.34 18.854 12.65 18.854 13.032V21.082C18.8548 21.2646 18.7831 21.44 18.6547 21.5697C18.5262 21.6995 18.3516 21.7729 18.169 21.774C18.0785 21.7736 17.989 21.7554 17.9056 21.7204C17.8221 21.6854 17.7464 21.6343 17.6827 21.5701C17.619 21.5058 17.5686 21.4296 17.5343 21.3459C17.5 21.2622 17.4826 21.1725 17.483 21.082V13.032C17.4825 12.8493 17.5544 12.6739 17.683 12.5442C17.8116 12.4145 17.9863 12.3411 18.169 12.34ZM15.176 7.382C14.534 7.427 14.111 7.646 13.842 8.044C13.644 8.335 13.545 8.587 13.529 8.812L18.467 8.811C18.453 8.52 18.338 8.264 18.115 8.019C17.769 7.639 17.385 7.433 17.022 7.384L15.176 7.382Z" fill="#F90000"/>
</svg>
