<svg width="19" height="20" viewBox="0 0 19 20" fill="none" xmlns="http://www.w3.org/2000/svg">
<path d="M8.9834 4.79883C11.2405 4.79892 13.1597 5.5508 14.7402 7.05469C16.3209 8.55869 17.1113 10.3837 17.1113 12.5283C17.1113 13.3195 16.8249 13.9889 16.2529 14.5361C15.6809 15.0834 14.9887 15.3571 14.1768 15.3564C13.3483 15.3564 12.644 15.0826 12.0635 14.5361C11.4829 13.9895 11.1928 13.3202 11.1934 12.5283C11.1934 11.9565 10.9832 11.469 10.5635 11.0664C10.1443 10.6645 9.62994 10.463 9.02148 10.4629C8.39948 10.4629 7.87553 10.6644 7.4502 11.0664C7.02425 11.4691 6.81055 11.9564 6.81055 12.5283C6.81061 14.1115 7.29259 15.4718 8.25586 16.6084C9.21852 17.745 10.6057 18.5815 12.417 19.1182L12.2061 19.8633C10.2622 19.3333 8.74867 18.4289 7.66602 17.1504C6.58341 15.8718 6.04205 14.3309 6.04199 12.5283C6.04199 11.737 6.33242 11.0662 6.91309 10.5176C7.4937 9.96775 8.19695 9.69336 9.02148 9.69336C9.83241 9.69347 10.5251 9.96764 11.0996 10.5166C11.6736 11.0659 11.9609 11.737 11.9609 12.5283C11.961 13.1001 12.1747 13.5877 12.6025 13.9902C13.0298 14.3922 13.5549 14.5927 14.1768 14.5928C14.7813 14.5928 15.2936 14.3921 15.7129 13.9902C16.1328 13.5876 16.3427 13.1002 16.3428 12.5283C16.3428 10.5897 15.6298 8.94349 14.2031 7.59082C12.7779 6.23891 11.0395 5.56354 8.98828 5.56348C6.96295 5.56348 5.23655 6.23882 3.81055 7.59082C2.3853 8.94413 1.67285 10.5885 1.67285 12.5225C1.67288 13.0677 1.73572 13.6575 1.86035 14.292C1.98501 14.9266 2.18869 15.6634 2.47266 16.502L1.78418 16.8125C1.48425 16.0207 1.26248 15.2704 1.11914 14.5625C0.975829 13.8559 0.904319 13.1776 0.904297 12.5283C0.904297 10.3837 1.68879 8.55869 3.25879 7.05469C4.82878 5.55072 6.73743 4.79883 8.9834 4.79883ZM9.31934 7.25C10.7999 7.31254 12.0276 7.84454 13.002 8.8457C14.0413 9.9137 14.5602 11.2701 14.5596 12.9141H13.791C13.791 11.4854 13.3451 10.3109 12.4531 9.3916C11.5605 8.47304 10.4155 8.01367 9.01953 8.01367C7.69788 8.01378 6.57458 8.45614 5.64941 9.33984C4.72341 10.2238 4.25977 11.2873 4.25977 12.5293C4.2598 13.7997 4.48195 14.9204 4.92578 15.8916C5.36911 16.8623 6.16827 17.9562 7.32227 19.1729L6.77637 19.7188C5.58985 18.4569 4.74581 17.2804 4.24512 16.1885C3.74449 15.0966 3.49356 13.8762 3.49219 12.5283C3.49219 11.0538 4.02815 9.80421 5.10059 8.78027C6.17325 7.75627 7.48082 7.24383 9.02148 7.24316L9.31934 7.25ZM9.3623 12.1426C9.3623 12.9058 9.47863 13.5832 9.71191 14.1738C9.94525 14.7645 10.2913 15.2732 10.75 15.6992C11.1833 16.0952 11.6778 16.4006 12.2324 16.6152C12.7868 16.8297 13.3682 16.9378 13.9766 16.9385C14.2212 16.9385 14.4616 16.9182 14.6963 16.8789C14.9309 16.8396 15.1671 16.7957 15.4043 16.7471L15.5586 17.4336C15.3014 17.5155 15.0424 17.5819 14.7812 17.6318C14.5199 17.6818 14.2512 17.707 13.9766 17.707C13.2687 17.707 12.5884 17.581 11.9365 17.3291C11.2847 17.0771 10.7073 16.7088 10.2041 16.2256C9.67086 15.7256 9.26869 15.136 8.99805 14.4561C8.72738 13.7761 8.5918 13.0046 8.5918 12.1426H9.3623ZM8.9834 2.44922C10.8406 2.44928 12.5408 2.8504 14.084 3.65234C15.6272 4.45429 16.9632 5.62925 18.0918 7.17773L17.4268 7.62402C16.4148 6.18341 15.1949 5.0888 13.7676 4.34082C12.3405 3.59302 10.7457 3.2185 8.9834 3.21777C7.2754 3.21777 5.71442 3.58998 4.30176 4.33398C2.88916 5.07798 1.65118 6.18502 0.587891 7.6543L0 7.19531C1.14462 5.65537 2.48117 4.47899 4.00977 3.66699C5.53843 2.85499 7.19673 2.44922 8.9834 2.44922ZM9.4209 0.00488281C10.3516 0.0340316 11.2611 0.166057 12.1484 0.399414C13.1623 0.66609 14.2357 1.09214 15.3682 1.67871L15.0439 2.39258C14.0354 1.82266 13.0486 1.40997 12.084 1.15332C11.1195 0.896692 10.0986 0.767617 9.02148 0.767578C8.01152 0.767578 7.02979 0.89822 6.07715 1.1582C5.1246 1.41817 4.10755 1.8275 3.02637 2.38672L2.76758 1.7041C3.77758 1.1261 4.79379 0.697302 5.81445 0.417969C6.83485 0.138754 7.90319 -0.000627271 9.01953 0L9.4209 0.00488281Z" fill="#284243"/>
</svg>
