<svg width="90" height="90" viewBox="0 0 90 90" fill="none" xmlns="http://www.w3.org/2000/svg">
<path fill-rule="evenodd" clip-rule="evenodd" d="M64.279 8.9025C60.814 8.4375 56.404 8.4375 50.899 8.4375H38.4452C32.944 8.4375 28.5302 8.4375 25.0652 8.9025C21.4765 9.3825 18.484 10.4062 16.1102 12.7725C13.6352 15.24 12.619 18.3787 12.1615 22.1625L12.139 22.35L12.1502 23.0813C11.341 23.6101 10.5883 24.2208 9.90399 24.9037C7.09899 27.7125 5.85399 31.2712 5.26149 35.6662C4.68774 39.9412 4.68774 45.3975 4.68774 52.29V54.3338C4.69149 60.4275 4.73649 65.4225 5.26149 69.3338C5.85399 73.7288 7.09899 77.2875 9.90399 80.0962C12.7127 82.9012 16.2715 84.1462 20.6665 84.7388C24.9415 85.3125 30.3977 85.3125 37.2902 85.3125H52.7102C59.6027 85.3125 65.0627 85.3125 69.334 84.7388C73.729 84.1462 77.2877 82.9012 80.0965 80.0962C82.9015 77.2875 84.1465 73.7288 84.739 69.3338C85.3128 65.0588 85.3128 59.6025 85.3128 52.71V52.29C85.3128 45.3975 85.3128 39.9375 84.739 35.6662C84.1465 31.2712 82.9015 27.7125 80.0965 24.9037C79.2327 24.0393 78.2594 23.2917 77.2015 22.68V22.3312L77.1828 22.1625C76.7253 18.3787 75.7127 15.24 73.234 12.7725C70.8602 10.41 67.8715 9.3825 64.279 8.9025ZM10.3165 55.65C10.3277 61.1813 10.399 65.325 10.8377 68.5875C11.344 72.3563 12.2965 74.5312 13.8827 76.1175C15.469 77.7038 17.644 78.6562 21.4165 79.1625C25.2715 79.68 30.349 79.6875 37.5002 79.6875H52.5002C59.6515 79.6875 64.7327 79.68 68.5878 79.1625C71.449 78.78 73.3915 78.1388 74.8577 77.1562L64.7815 68.085C63.3613 66.8065 61.5492 66.048 59.6417 65.9335C57.7342 65.8191 55.8444 66.3555 54.2815 67.455L53.1677 68.2425C51.1813 69.6383 48.7661 70.2884 46.3474 70.0785C43.9287 69.8686 41.6616 68.8121 39.9452 67.095L23.8577 51.0075C22.8147 49.9647 21.4143 49.3574 19.9402 49.3087C18.4661 49.2599 17.0286 49.7734 15.919 50.745L10.3165 55.65ZM68.5427 63.9038L78.2477 72.6413C78.6452 71.5312 78.9453 70.2037 79.1628 68.5837C79.6803 64.7325 79.6878 59.6512 79.6878 52.5C79.6878 45.3488 79.6803 40.2712 79.1628 36.4125C78.6565 32.6437 77.704 30.4688 76.1178 28.8825C74.5315 27.2963 72.3565 26.3438 68.584 25.8375C64.7327 25.32 59.6515 25.3125 52.5002 25.3125H37.5002C30.349 25.3125 25.2715 25.32 21.4127 25.8375C17.644 26.3438 15.469 27.2963 13.8827 28.8825C12.2965 30.4688 11.344 32.6438 10.8377 36.4163C10.429 39.4425 10.339 43.2262 10.3202 48.1725L12.2177 46.5112C14.4016 44.6007 17.23 43.5917 20.13 43.6885C23.03 43.7852 25.7848 44.9806 27.8365 47.0325L43.924 63.12C44.7045 63.8992 45.7347 64.3782 46.8335 64.4729C47.9323 64.5675 49.0293 64.2717 49.9315 63.6375L51.049 62.85C53.6537 61.0196 56.8023 60.1271 59.9801 60.3185C63.1579 60.5099 66.1766 61.7739 68.5427 63.9038ZM20.0777 16.7625C19.1777 17.6587 18.5327 18.8287 18.1052 20.7112C18.9526 20.5277 19.807 20.3789 20.6665 20.265C24.9415 19.6912 30.3977 19.6912 37.2902 19.6912H52.7102C59.6027 19.6912 65.0627 19.6912 69.334 20.265C69.9753 20.3512 70.5977 20.4525 71.209 20.5688C70.7777 18.7688 70.1403 17.6362 69.2665 16.7625C68.1115 15.6112 66.5027 14.88 63.5327 14.4825C60.484 14.07 56.449 14.0662 50.6927 14.0662H38.6515C32.8952 14.0662 28.8602 14.0738 25.8115 14.4788C22.8415 14.88 21.2327 15.6112 20.0777 16.7625Z" fill="#284243"/>
<path fill-rule="evenodd" clip-rule="evenodd" d="M65.625 30.9377C64.517 30.9377 63.4198 31.156 62.3961 31.58C61.3724 32.004 60.4423 32.6255 59.6588 33.409C58.8753 34.1925 58.2538 35.1227 57.8298 36.1464C57.4057 37.17 57.1875 38.2672 57.1875 39.3752C57.1875 40.4833 57.4057 41.5805 57.8298 42.6041C58.2538 43.6278 58.8753 44.558 59.6588 45.3415C60.4423 46.125 61.3724 46.7465 62.3961 47.1705C63.4198 47.5945 64.517 47.8127 65.625 47.8127C67.8628 47.8127 70.0089 46.9238 71.5912 45.3415C73.1736 43.7591 74.0625 41.613 74.0625 39.3752C74.0625 37.1375 73.1736 34.9914 71.5912 33.409C70.0089 31.8267 67.8628 30.9377 65.625 30.9377ZM65.625 36.5627C64.8791 36.5627 64.1637 36.8591 63.6363 37.3865C63.1088 37.914 62.8125 38.6293 62.8125 39.3752C62.8125 40.1212 63.1088 40.8365 63.6363 41.364C64.1637 41.8914 64.8791 42.1877 65.625 42.1877C66.3709 42.1877 67.0863 41.8914 67.6137 41.364C68.1412 40.8365 68.4375 40.1212 68.4375 39.3752C68.4375 38.6293 68.1412 37.914 67.6137 37.3865C67.0863 36.8591 66.3709 36.5627 65.625 36.5627Z" fill="#284243"/>
</svg>
