<svg width="20" height="21" viewBox="0 0 20 21" fill="none" xmlns="http://www.w3.org/2000/svg">
<path d="M0.75 1.35C0.75 1.19087 0.813214 1.03826 0.925736 0.925736C1.03826 0.813214 1.19087 0.75 1.35 0.75H18.15C18.3091 0.75 18.4617 0.813214 18.5743 0.925736C18.6868 1.03826 18.75 1.19087 18.75 1.35V15.15C18.75 15.2288 18.7345 15.3068 18.7043 15.3796C18.6742 15.4524 18.63 15.5185 18.5743 15.5743C18.5185 15.63 18.4524 15.6742 18.3796 15.7043C18.3068 15.7345 18.2288 15.75 18.15 15.75H14.01C13.9279 15.7499 13.8467 15.7666 13.7714 15.7991C13.6961 15.8316 13.6282 15.8792 13.572 15.939L10.187 19.536C10.1309 19.5956 10.0632 19.6431 9.98803 19.6756C9.91288 19.7081 9.83187 19.7249 9.75 19.7249C9.66813 19.7249 9.58712 19.7081 9.51197 19.6756C9.43681 19.6431 9.3691 19.5956 9.313 19.536L5.928 15.939C5.8718 15.8792 5.80393 15.8316 5.72859 15.7991C5.65325 15.7666 5.57205 15.7499 5.49 15.75H1.35C1.19087 15.75 1.03826 15.6868 0.925736 15.5743C0.813214 15.4617 0.75 15.3091 0.75 15.15V1.35Z" stroke="#284243" stroke-width="1.5"/>
</svg>
