<svg width="22" height="17" viewBox="0 0 22 17" fill="none" xmlns="http://www.w3.org/2000/svg">
<path d="M10.83 5.07907L14 7.75405V7.61861C14 6.94508 13.6839 6.29914 13.1213 5.82288C12.5587 5.34663 11.7956 5.07907 11 5.07907H10.83ZM6.53 5.75628L8.08 7.06837C8.03 7.24614 8 7.42391 8 7.61861C8 8.29213 8.31607 8.93807 8.87868 9.41433C9.44129 9.89058 10.2044 10.1581 11 10.1581C11.22 10.1581 11.44 10.1327 11.65 10.0904L13.2 11.4025C12.53 11.6819 11.79 11.8512 11 11.8512C9.67392 11.8512 8.40215 11.4052 7.46447 10.6115C6.52678 9.81772 6 8.74115 6 7.61861C6 6.94986 6.2 6.32344 6.53 5.75628ZM1 1.07507L3.28 3.00512L3.73 3.38605C2.08 4.48651 0.78 5.92558 0 7.61861C1.73 11.3348 6 13.9674 11 13.9674C12.55 13.9674 14.03 13.7135 15.38 13.2564L15.81 13.6119L18.73 16.0837L20 15.0087L2.27 0M11 3.38605C12.3261 3.38605 13.5979 3.83198 14.5355 4.62573C15.4732 5.41949 16 6.49606 16 7.61861C16 8.16037 15.87 8.68521 15.64 9.15926L18.57 11.6395C20.07 10.5814 21.27 9.19312 22 7.61861C20.27 3.90242 16 1.26977 11 1.26977C9.6 1.26977 8.26 1.4814 7 1.86233L9.17 3.68233C9.74 3.49609 10.35 3.38605 11 3.38605Z" fill="black"/>
</svg>
